<svg id="Third.svg" xmlns="http://www.w3.org/2000/svg" width="2072" height="1325" viewBox="0 0 2072 1325">
  <defs>
    <style>
      .cls-1 {
        fill: #c6c6c6;
      }

      .cls-1, .cls-15, .cls-2 {
        stroke: #000;
      }

      .cls-1, .cls-10, .cls-11, .cls-12, .cls-13, .cls-14, .cls-2, .cls-4, .cls-5, .cls-7, .cls-8, .cls-9 {
        stroke-width: 5px;
      }

      .cls-1, .cls-10, .cls-11, .cls-12, .cls-13, .cls-14, .cls-15, .cls-2, .cls-4, .cls-5, .cls-6, .cls-7, .cls-8, .cls-9 {
        fill-rule: evenodd;
      }

      .cls-2 {
        fill: #9e9e9e;
      }

      .cls-16, .cls-3 {
        font-size: 41.667px;
        font-family: "JetBrains Mono";
        font-weight: 500;
      }

      .cls-3 {
        text-anchor: middle;
      }

      .cls-4 {
        fill: #00cdff;
      }

      .cls-4, .cls-5 {
        stroke: #004e78;
      }

      .cls-5 {
        fill: #25abdc;
      }

      .cls-6 {
        fill: #fdf8f8;
        opacity: 0.5;
      }

      .cls-7 {
        fill: #4bd645;
      }

      .cls-7, .cls-8 {
        stroke: #050;
      }

      .cls-8 {
        fill: #1bb624;
      }

      .cls-9 {
        fill: #ff9c36;
      }

      .cls-10, .cls-9 {
        stroke: #994500;
      }

      .cls-10 {
        fill: #e4841b;
      }

      .cls-11 {
        fill: #ff95c0;
      }

      .cls-11, .cls-12 {
        stroke: #9c3a67;
      }

      .cls-12 {
        fill: #e47ca7;
      }

      .cls-13 {
        fill: #cbaeff;
      }

      .cls-13, .cls-14 {
        stroke: #6b529a;
      }

      .cls-14 {
        fill: #ae91df;
      }

      .cls-15 {
        stroke-width: 2px;
      }
    </style>
  </defs>
  <g id="User">
    <path class="cls-1" d="M2362,356H295V236H2362V356Z" transform="translate(-292.5 -233.5)"/>
    <path id="Rectangle_1_copy" data-name="Rectangle 1 copy" class="cls-2" d="M600,356H295V236H600V356Z" transform="translate(-292.5 -233.5)"/>
    <text id="User-2" data-name="User" class="cls-3" x="154.024" y="78.439">User</text>
  </g>
  <g id="Compiler">
    <path class="cls-4" d="M2362,596H295V476H2362V596Z" transform="translate(-292.5 -233.5)"/>
    <path id="Rectangle_1_copy-2" data-name="Rectangle 1 copy" class="cls-5" d="M600,596H295V476H600V596Z" transform="translate(-292.5 -233.5)"/>
    <text id="Compiler-2" data-name="Compiler" class="cls-3" x="154.024" y="315.439">Compiler</text>
    <path id="Rectangle_1_copy_2" data-name="Rectangle 1 copy 2" class="cls-6" d="M2357,536H600V481H2357v55Z" transform="translate(-292.5 -233.5)"/>
    <text id="main" class="cls-3" x="395.025" y="292.44">main</text>
    <text id="if_OutputType_LLVM" data-name="if OutputType &gt; LLVM" class="cls-3" x="722.026" y="292.44">if OutputType &gt; LLVM</text>
    <text id="if_OutputType_DEBUG" data-name="if OutputType &gt; DEBUG" class="cls-3" x="1297.026" y="291.437">if OutputType &gt; DEBUG</text>
  </g>
  <g id="Llama">
    <path class="cls-7" d="M2362,836H295V716H2362V836Z" transform="translate(-292.5 -233.5)"/>
    <path id="Rectangle_1_copy-3" data-name="Rectangle 1 copy" class="cls-8" d="M600,836H295V716H600V836Z" transform="translate(-292.5 -233.5)"/>
    <text id="_1" data-name="1" class="cls-3" x="154.024" y="554.439">Llama.cpp</text>
  </g>
  <g id="MLIRGen">
    <path class="cls-9" d="M2362,1076H295V956H2362v120Z" transform="translate(-292.5 -233.5)"/>
    <path id="Rectangle_1_copy-4" data-name="Rectangle 1 copy" class="cls-10" d="M600,1076H295V956H600v120Z" transform="translate(-292.5 -233.5)"/>
    <text id="MLIRGen-2" data-name="MLIRGen" class="cls-3" x="155.026" y="798.438">MLIRGen</text>
  </g>
  <g id="MLIRGGML">
    <path class="cls-11" d="M2362,1316H295V1196H2362v120Z" transform="translate(-292.5 -233.5)"/>
    <path id="Rectangle_1_copy-5" data-name="Rectangle 1 copy" class="cls-12" d="M600,1316H295V1196H600v120Z" transform="translate(-292.5 -233.5)"/>
    <text id="MLIRGGML-2" data-name="MLIRGGML" class="cls-3" x="154.024" y="1038.438">MLIRGGML</text>
  </g>
  <g id="MLIR">
    <path class="cls-13" d="M2362,1556H295V1436H2362v120Z" transform="translate(-292.5 -233.5)"/>
    <path id="Rectangle_1_copy-6" data-name="Rectangle 1 copy" class="cls-14" d="M600,1556H295V1436H600v120Z" transform="translate(-292.5 -233.5)"/>
    <text id="MLIR-2" data-name="MLIR" class="cls-3" x="155.026" y="1278.437">MLIR</text>
    <path id="Rectangle_1_copy_8" data-name="Rectangle 1 copy 8" class="cls-6" d="M1329,1496H755v-55h574v55Z" transform="translate(-292.5 -233.5)"/>
    <text id="lowerLinalgToLLVM" class="cls-3" x="687.026" y="1248.437">lowerLinalgToLLVM</text>
    <path id="Rectangle_1_copy_9" data-name="Rectangle 1 copy 9" class="cls-6" d="M1935,1551H1329v-55h606v55Z" transform="translate(-292.5 -233.5)"/>
    <text id="runJIT" class="cls-3" x="1120.026" y="1305.439">runJIT</text>
  </g>
  <g id="Arrows">
    <g id="Group_3_copy_14" data-name="Group 3 copy 14">
      <path id="Line_1" data-name="Line 1" class="cls-15" d="M791.008,548.372h0.984V1320.48h6.895l-7.387,77.21-7.387-77.21h6.895V548.372Z" transform="translate(-292.5 -233.5)"/>
      <text id="LinalgCode" class="cls-16" x="513.076" y="436.598">LinalgCode</text>
    </g>
    <g id="Group_3_copy_15" data-name="Group 3 copy 15">
      <path id="Line_1-2" data-name="Line 1" class="cls-15" d="M1090.99,1408.62h-0.98V634.758h-6.9l7.39-77.387,7.39,77.387h-6.9V1408.62Z" transform="translate(-292.5 -233.5)"/>
      <text id="LLVMCode" class="cls-16" x="812.075" y="436.598">LLVMCode</text>
    </g>
    <g id="Group_3_copy_16" data-name="Group 3 copy 16">
      <path id="Line_1-3" data-name="Line 1" class="cls-15" d="M1360.01,548.671h0.98v843.9h6.9l-7.39,84.39-7.39-84.39h6.9v-843.9Z" transform="translate(-292.5 -233.5)"/>
      <text id="LLVMCode_inputTensor" data-name="LLVMCode inputTensor" class="cls-16" x="1082.075" y="408.601">LLVMCode<tspan x="1082.075" dy="50">inputTensor</tspan></text>
    </g>
    <g id="Group_3_copy_17" data-name="Group 3 copy 17">
      <path id="Line_1-4" data-name="Line 1" class="cls-15" d="M1659.99,1488.91h-0.98V643.088h-6.9l7.39-84.582,7.39,84.582h-6.9V1488.91Z" transform="translate(-292.5 -233.5)"/>
      <text id="MLIRResult" class="cls-16" x="1384.077" y="436.598">MLIRResult</text>
    </g>
    <g id="Group_3_copy_6" data-name="Group 3 copy 6">
      <path id="Line_1-5" data-name="Line 1" class="cls-15" d="M2327,465.559h-1V374.65h-7l7.5-9.091,7.5,9.091h-7v90.909Z" transform="translate(-292.5 -233.5)"/>
      <text id="_GGML_Linalg_LLVM_Code_MLIRResult_GGMLResult" data-name="(GGML|Linalg|LLVM)Code MLIRResult == GGMLResult" class="cls-16" x="1426.076" y="175.599">(GGML|Linalg|LLVM)Code<tspan x="1426.076" dy="50">MLIRResult == GGMLResult</tspan></text>
    </g>
  </g>
</svg>
