<svg id="First.svg" xmlns="http://www.w3.org/2000/svg" width="2072" height="2865" viewBox="0 0 2072 2865">
  <defs>
    <style>
      .cls-1 {
        fill: #c6c6c6;
      }

      .cls-1, .cls-15, .cls-2 {
        stroke: #000;
      }

      .cls-1, .cls-10, .cls-11, .cls-12, .cls-13, .cls-14, .cls-2, .cls-4, .cls-5, .cls-7, .cls-8, .cls-9 {
        stroke-width: 5px;
      }

      .cls-1, .cls-10, .cls-11, .cls-12, .cls-13, .cls-14, .cls-15, .cls-2, .cls-4, .cls-5, .cls-6, .cls-7, .cls-8, .cls-9 {
        fill-rule: evenodd;
      }

      .cls-2 {
        fill: #9e9e9e;
      }

      .cls-16, .cls-3 {
        font-size: 41.667px;
        font-family: "JetBrains Mono";
        font-weight: 500;
      }

      .cls-3 {
        text-anchor: middle;
      }

      .cls-4 {
        fill: #00cdff;
      }

      .cls-4, .cls-5 {
        stroke: #004e78;
      }

      .cls-5 {
        fill: #25abdc;
      }

      .cls-6 {
        fill: #fdf8f8;
        opacity: 0.5;
      }

      .cls-7 {
        fill: #4bd645;
      }

      .cls-7, .cls-8 {
        stroke: #050;
      }

      .cls-8 {
        fill: #1bb624;
      }

      .cls-9 {
        fill: #ff9c36;
      }

      .cls-10, .cls-9 {
        stroke: #994500;
      }

      .cls-10 {
        fill: #e4841b;
      }

      .cls-11 {
        fill: #ff95c0;
      }

      .cls-11, .cls-12 {
        stroke: #9c3a67;
      }

      .cls-12 {
        fill: #e47ca7;
      }

      .cls-13 {
        fill: #cbaeff;
      }

      .cls-13, .cls-14 {
        stroke: #6b529a;
      }

      .cls-14 {
        fill: #ae91df;
      }

      .cls-15 {
        stroke-width: 2px;
      }
    </style>
  </defs>
  <g id="First">
    <g id="User">
      <path class="cls-1" d="M2362,356H295V236H2362V356Z" transform="translate(-292.5 -233.5)"/>
      <path id="Rectangle_1_copy" data-name="Rectangle 1 copy" class="cls-2" d="M600,356H295V236H600V356Z" transform="translate(-292.5 -233.5)"/>
      <text id="User-2" data-name="User" class="cls-3" x="154.024" y="78.439">User</text>
    </g>
    <g id="Compiler">
      <path class="cls-4" d="M2362,596H295V476H2362V596Z" transform="translate(-292.5 -233.5)"/>
      <path id="Rectangle_1_copy-2" data-name="Rectangle 1 copy" class="cls-5" d="M600,596H295V476H600V596Z" transform="translate(-292.5 -233.5)"/>
      <text id="Compiler-2" data-name="Compiler" class="cls-3" x="154.024" y="315.439">Compiler</text>
      <path id="Rectangle_1_copy_2" data-name="Rectangle 1 copy 2" class="cls-6" d="M2357,536H600V481H2357v55Z" transform="translate(-292.5 -233.5)"/>
      <text id="main" class="cls-3" x="395.025" y="292.44">main</text>
      <path id="Rectangle_1_copy_4" data-name="Rectangle 1 copy 4" class="cls-6" d="M2357,591H1661V536h696v55Z" transform="translate(-292.5 -233.5)"/>
      <text id="callback" class="cls-3" x="1481.025" y="346.439">callback</text>
    </g>
    <g id="Llama">
      <path class="cls-7" d="M2362,836H295V716H2362V836Z" transform="translate(-292.5 -233.5)"/>
      <path id="Rectangle_1_copy-3" data-name="Rectangle 1 copy" class="cls-8" d="M600,836H295V716H600V836Z" transform="translate(-292.5 -233.5)"/>
      <text id="_3" data-name="3" class="cls-3" x="154.024" y="554.439">Llama.cpp</text>
      <path id="Rectangle_1_copy_2-2" data-name="Rectangle 1 copy 2" class="cls-6" d="M1306,776H705V721h601v55Z" transform="translate(-292.5 -233.5)"/>
      <text id="load_model" class="cls-3" x="547.025" y="529.437">load_model</text>
      <path id="Rectangle_1_copy_3" data-name="Rectangle 1 copy 3" class="cls-6" d="M2357,831H1307V776H2357v55Z" transform="translate(-292.5 -233.5)"/>
      <text id="decode" class="cls-3" x="1104.025" y="585.439">decode</text>
    </g>
    <g id="MLIRGen">
      <path class="cls-9" d="M2362,1076H295V956H2362v120Z" transform="translate(-292.5 -233.5)"/>
      <path id="Rectangle_1_copy-4" data-name="Rectangle 1 copy" class="cls-10" d="M600,1076H295V956H600v120Z" transform="translate(-292.5 -233.5)"/>
      <text id="MLIRGen-2" data-name="MLIRGen" class="cls-3" x="155.026" y="798.438">MLIRGen</text>
      <path id="Rectangle_1_copy_5" data-name="Rectangle 1 copy 5" class="cls-6" d="M2357,1016H1908V961h449v55Z" transform="translate(-292.5 -233.5)"/>
      <text id="appendOp" class="cls-3" x="1729.025" y="766.438">appendOp</text>
    </g>
    <g id="MLIRGGML">
      <path class="cls-11" d="M2362,1316H295V1196H2362v120Z" transform="translate(-292.5 -233.5)"/>
      <path id="Rectangle_1_copy-5" data-name="Rectangle 1 copy" class="cls-12" d="M600,1316H295V1196H600v120Z" transform="translate(-292.5 -233.5)"/>
      <text id="MLIRGGML-2" data-name="MLIRGGML" class="cls-3" x="154.024" y="1038.438">MLIRGGML</text>
    </g>
    <g id="MLIR">
      <path class="cls-13" d="M2362,1556H295V1436H2362v120Z" transform="translate(-292.5 -233.5)"/>
      <path id="Rectangle_1_copy-6" data-name="Rectangle 1 copy" class="cls-14" d="M600,1556H295V1436H600v120Z" transform="translate(-292.5 -233.5)"/>
      <text id="MLIR-2" data-name="MLIR" class="cls-3" x="155.026" y="1278.437">MLIR</text>
    </g>
    <g id="Arrows">
      <g>
        <path id="Line_1" data-name="Line 1" class="cls-15" d="M650,366h1v90.909h7L650.5,466l-7.5-9.091h7V366Z" transform="translate(-292.5 -233.5)"/>
        <text id="modelName_outputType" data-name="modelName outputType" class="cls-16" x="372.076" y="169.601">modelName<tspan x="372.076" dy="50">outputType</tspan></text>
      </g>
      <g id="Group_3_copy" data-name="Group 3 copy">
        <path id="Line_1-2" data-name="Line 1" class="cls-15" d="M727.006,550.555h0.988V691.489H734.9l-7.4,14.093-7.4-14.093h6.909V550.555Z" transform="translate(-292.5 -233.5)"/>
        <text id="modelName" class="cls-16" x="449.075" y="435.598">modelName</text>
      </g>
      <g id="Group_3_copy_2" data-name="Group 3 copy 2">
        <path id="Line_1-3" data-name="Line 1" class="cls-15" d="M1033,705.559h-1V564.65h-7l7.5-14.091,7.5,14.091h-7V705.559Z" transform="translate(-292.5 -233.5)"/>
        <text id="compGraph" class="cls-16" x="754.075" y="434.599">compGraph</text>
      </g>
      <g id="Group_3_copy_3" data-name="Group 3 copy 3">
        <path id="Line_1-4" data-name="Line 1" class="cls-15" d="M1328.51,549.006h0.98V739.915h6.91l-7.4,19.091-7.4-19.091h6.91V549.006Z" transform="translate(-292.5 -233.5)"/>
        <text id="compGraph_inputTensor" data-name="compGraph inputTensor" class="cls-16" x="1054.076" y="410.6">compGraph<tspan x="1054.076" dy="50">inputTensor</tspan></text>
      </g>
      <g id="Group_3_copy_4" data-name="Group 3 copy 4">
        <path id="Line_1-5" data-name="Line 1" class="cls-15" d="M1689,766.559h-1V625.65h-7l7.5-14.091,7.5,14.091h-7V766.559Z" transform="translate(-292.5 -233.5)"/>
        <text id="node" class="cls-16" x="1412.076" y="437.598">node</text>
      </g>
      <g id="Group_3_copy_5" data-name="Group 3 copy 5">
        <path id="Line_1-6" data-name="Line 1" class="cls-15" d="M1932.02,609h0.96V909.716h6.76l-7.24,30.071-7.24-30.071h6.76V609Z" transform="translate(-292.5 -233.5)"/>
        <text id="node-2" data-name="node" class="cls-16" x="1657.075" y="437.598">node</text>
      </g>
    </g>
  </g>
  <g id="Second">
    <g id="User-3" data-name="User">
      <path class="cls-1" d="M2362,1896H295V1776H2362v120Z" transform="translate(-292.5 -233.5)"/>
      <path id="Rectangle_1_copy-7" data-name="Rectangle 1 copy" class="cls-2" d="M600,1896H295V1776H600v120Z" transform="translate(-292.5 -233.5)"/>
      <text id="User-4" data-name="User" class="cls-3" x="154.024" y="1618.44">User</text>
    </g>
    <g id="Compiler-3" data-name="Compiler">
      <path class="cls-4" d="M2362,2136H295V2016H2362v120Z" transform="translate(-292.5 -233.5)"/>
      <path id="Rectangle_1_copy-8" data-name="Rectangle 1 copy" class="cls-5" d="M600,2136H295V2016H600v120Z" transform="translate(-292.5 -233.5)"/>
      <text id="Compiler-4" data-name="Compiler" class="cls-3" x="154.024" y="1855.44">Compiler</text>
      <path id="Rectangle_1_copy_2-3" data-name="Rectangle 1 copy 2" class="cls-6" d="M2357,2076H600v-55H2357v55Z" transform="translate(-292.5 -233.5)"/>
      <text id="main-2" data-name="main" class="cls-3" x="370.025" y="1832.438">main</text>
      <path id="Rectangle_1_copy_4-2" data-name="Rectangle 1 copy 4" class="cls-6" d="M1050,2131H600v-55h450v55Z" transform="translate(-292.5 -233.5)"/>
      <text id="callback-2" data-name="callback" class="cls-3" x="419.024" y="1886.437">callback</text>
      <text id="if_OutputType_GGML" data-name="if OutputType &gt; GGML" class="cls-3" x="1363.024" y="1832.438">if OutputType &gt; GGML</text>
    </g>
    <g id="Llama-2" data-name="Llama">
      <path class="cls-7" d="M2362,2376H295V2256H2362v120Z" transform="translate(-292.5 -233.5)"/>
      <path id="Rectangle_1_copy-9" data-name="Rectangle 1 copy" class="cls-8" d="M600,2376H295V2256H600v120Z" transform="translate(-292.5 -233.5)"/>
      <text id="_2" data-name="2" class="cls-3" x="154.024" y="2094.44">Llama.cpp</text>
      <path id="Rectangle_1_copy_3-2" data-name="Rectangle 1 copy 3" class="cls-6" d="M1406,2371H600v-55h806v55Z" transform="translate(-292.5 -233.5)"/>
      <text id="decode-2" data-name="decode" class="cls-3" x="394.026" y="2125.437">decode</text>
    </g>
    <g id="MLIRGen-3" data-name="MLIRGen">
      <path class="cls-9" d="M2362,2616H295V2496H2362v120Z" transform="translate(-292.5 -233.5)"/>
      <path id="Rectangle_1_copy-10" data-name="Rectangle 1 copy" class="cls-10" d="M600,2616H295V2496H600v120Z" transform="translate(-292.5 -233.5)"/>
      <text id="MLIRGen-4" data-name="MLIRGen" class="cls-3" x="155.026" y="2338.439">MLIRGen</text>
      <path id="Rectangle_1_copy_7" data-name="Rectangle 1 copy 7" class="cls-6" d="M992,2556H600v-55H992v55Z" transform="translate(-292.5 -233.5)"/>
      <text id="appendOp_copy" data-name="appendOp copy" class="cls-3" x="420.026" y="2306.439">appendOp</text>
    </g>
    <g id="MLIRGGML-3" data-name="MLIRGGML">
      <path class="cls-11" d="M2362,2856H295V2736H2362v120Z" transform="translate(-292.5 -233.5)"/>
      <path id="Rectangle_1_copy-11" data-name="Rectangle 1 copy" class="cls-12" d="M600,2856H295V2736H600v120Z" transform="translate(-292.5 -233.5)"/>
      <text id="MLIRGGML-4" data-name="MLIRGGML" class="cls-3" x="154.024" y="2578.439">MLIRGGML</text>
      <path id="Rectangle_1_copy_6" data-name="Rectangle 1 copy 6" class="cls-6" d="M940,2796H600v-55H940v55Z" transform="translate(-292.5 -233.5)"/>
      <text id="buildOp" class="cls-3" x="407.026" y="2549.438">buildOp</text>
      <path id="Rectangle_1_copy_8" data-name="Rectangle 1 copy 8" class="cls-6" d="M2007,2796H1433v-55h574v55Z" transform="translate(-292.5 -233.5)"/>
      <text id="lowerGGMLToLinalg" class="cls-3" x="1365.025" y="2548.439">lowerGGMLToLinalg</text>
    </g>
    <g id="MLIR-3" data-name="MLIR">
      <path class="cls-13" d="M2362,3096H295V2976H2362v120Z" transform="translate(-292.5 -233.5)"/>
      <path id="Rectangle_1_copy-12" data-name="Rectangle 1 copy" class="cls-14" d="M600,3096H295V2976H600v120Z" transform="translate(-292.5 -233.5)"/>
      <text id="MLIR-4" data-name="MLIR" class="cls-3" x="155.026" y="2818.439">MLIR</text>
    </g>
    <g id="Arrows-2" data-name="Arrows">
      <g id="Group_3_copy_7" data-name="Group 3 copy 7">
        <path id="Line_1-7" data-name="Line 1" class="cls-15" d="M629,2568.44h1v140.91h7l-7.5,14.09-7.5-14.09h7V2568.44Z" transform="translate(-292.5 -233.5)"/>
        <text id="op_src1_src2" data-name="op src1 src2" class="cls-16" x="354.076" y="2429.598">op<tspan x="354.076" dy="50">src1 src2</tspan></text>
      </g>
      <g id="Group_3_copy_8" data-name="Group 3 copy 8">
        <path id="Line_1-8" data-name="Line 1" class="cls-15" d="M915,2724.56h-1V2583.65h-7l7.5-14.09,7.5,14.09h-7v140.91Z" transform="translate(-292.5 -233.5)"/>
      </g>
      <g id="Group_3_copy_9" data-name="Group 3 copy 9">
        <path id="Line_1-9" data-name="Line 1" class="cls-15" d="M972.983,2484h-0.966V2184.18h-6.756l7.239-29.98,7.239,29.98h-6.756V2484Z" transform="translate(-292.5 -233.5)"/>
      </g>
      <g id="Group_3_copy_10" data-name="Group 3 copy 10">
        <path id="Line_1-10" data-name="Line 1" class="cls-15" d="M1025.51,2149.04h0.98v140.69h6.82L1026,2303.8l-7.31-14.07h6.82V2149.04Z" transform="translate(-292.5 -233.5)"/>
      </g>
      <g id="Group_3_copy_11" data-name="Group 3 copy 11">
        <path id="Line_1-11" data-name="Line 1" class="cls-15" d="M1082.5,2303.02h-1V2109.16h-7.05l7.55-19.39,7.55,19.39h-7.05v193.86Z" transform="translate(-292.5 -233.5)"/>
        <text id="GGMLResult" class="cls-16" x="803.075" y="1978.599">GGMLResult</text>
      </g>
      <g id="Group_3_copy_12" data-name="Group 3 copy 12">
        <path id="Line_1-12" data-name="Line 1" class="cls-15" d="M1467.5,2091.94h1v566.34h7.05l-7.55,56.63-7.55-56.63h7.05V2091.94Z" transform="translate(-292.5 -233.5)"/>
        <text id="GGMLCode" class="cls-16" x="1189.077" y="1980.599">GGMLCode</text>
      </g>
      <g id="Group_3_copy_13" data-name="Group 3 copy 13">
        <path id="Line_1-13" data-name="Line 1" class="cls-15" d="M1727.5,2720.46h-1V2154.13h-7.05l7.55-56.63,7.55,56.63h-7.05v566.33Z" transform="translate(-292.5 -233.5)"/>
        <text id="LinalgCode" class="cls-16" x="1448.076" y="1979.599">LinalgCode</text>
      </g>
    </g>
  </g>
</svg>
